<?xml version="1.0" encoding="UTF-8"?>
<svg width="30px" height="30px" viewBox="0 0 30 30" version="1.1" xmlns="http://www.w3.org/2000/svg" xmlns:xlink="http://www.w3.org/1999/xlink">
    <!-- Generator: Sketch 51.2 (57519) - http://www.bohemiancoding.com/sketch -->
    <title>3. Icons/ic_favorite_border</title>
    <desc>Created with Sketch.</desc>
    <defs>
        <path d="M19.5,6 C17.76,6 16.09,6.81 15,8.09 C13.91,6.81 12.24,6 10.5,6 C7.42,6 5,8.42 5,11.5 C5,15.28 8.4,18.36 13.55,23.04 L15,24.35 L16.45,23.03 C21.6,18.36 25,15.28 25,11.5 C25,8.42 22.58,6 19.5,6 L19.5,6 Z M15.1,21.55 L15,21.65 L14.9,21.55 C10.14,17.24 7,14.39 7,11.5 C7,9.5 8.5,8 10.5,8 C12.04,8 13.54,8.99 14.07,10.36 L15.94,10.36 C16.46,8.99 17.96,8 19.5,8 C21.5,8 23,9.5 23,11.5 C23,14.39 19.86,17.24 15.1,21.55 L15.1,21.55 Z" id="path-1"></path>
    </defs>
    <g id="3.-Icons/ic_favorite_border" stroke="none" stroke-width="1" fill="none" fill-rule="evenodd">
        <mask id="mask-2" fill="white">
            <use xlink:href="#path-1"></use>
        </mask>
        <g id="Icon"></g>
        <g id="5.-Colors/Gray-85" mask="url(#mask-2)" fill="#D8D8D8">
            <g transform="translate(2.000000, 2.000000)" id="Gray-85">
                <rect x="0" y="0" width="26" height="26"></rect>
            </g>
        </g>
    </g>
</svg>