<?xml version="1.0" encoding="UTF-8"?>
<svg width="30px" height="30px" viewBox="0 0 30 30" version="1.1" xmlns="http://www.w3.org/2000/svg" xmlns:xlink="http://www.w3.org/1999/xlink">
    <!-- Generator: Sketch 51.2 (57519) - http://www.bohemiancoding.com/sketch -->
    <title>3. Icons/ic_remove_red_eye</title>
    <desc>Created with Sketch.</desc>
    <defs>
        <path d="M15,7.5 C10,7.5 5.73,10.61 4,15 C5.73,19.39 10,22.5 15,22.5 C20,22.5 24.27,19.39 26,15 C24.27,10.61 20,7.5 15,7.5 L15,7.5 Z M15,20 C12.24,20 10,17.76 10,15 C10,12.24 12.24,10 15,10 C17.76,10 20,12.24 20,15 C20,17.76 17.76,20 15,20 L15,20 Z M15,12 C13.34,12 12,13.34 12,15 C12,16.66 13.34,18 15,18 C16.66,18 18,16.66 18,15 C18,13.34 16.66,12 15,12 L15,12 Z" id="path-1"></path>
    </defs>
    <g id="3.-Icons/ic_remove_red_eye" stroke="none" stroke-width="1" fill="none" fill-rule="evenodd">
        <mask id="mask-2" fill="white">
            <use xlink:href="#path-1"></use>
        </mask>
        <g id="Icon"></g>
        <g id="5.-Colors/Gray-85" mask="url(#mask-2)" fill="#D8D8D8">
            <g transform="translate(2.000000, 2.000000)" id="Gray-85">
                <rect x="0" y="0" width="26" height="26"></rect>
            </g>
        </g>
    </g>
</svg>