<?xml version="1.0" encoding="UTF-8"?>
<svg width="30px" height="30px" viewBox="0 0 30 30" version="1.1" xmlns="http://www.w3.org/2000/svg" xmlns:xlink="http://www.w3.org/1999/xlink">
    <!-- Generator: Sketch 51.2 (57519) - http://www.bohemiancoding.com/sketch -->
    <title>3. Icons/ic_instagram</title>
    <desc>Created with Sketch.</desc>
    <defs>
        <path d="M22.5795981,9.75734158 C22.7774343,10.2642968 22.9134467,10.8454405 22.950541,11.698609 C22.9938176,12.5517774 23,12.8238022 23,15 C23,17.1761978 22.9876352,17.4482226 22.950541,18.301391 C22.9134467,19.1483771 22.7774343,19.7357032 22.5795981,20.2426584 C22.3755796,20.7681607 22.1035549,21.2132921 21.6584235,21.6584235 C21.2132921,22.1035549 20.7681607,22.3755796 20.2426584,22.5795981 C19.7357032,22.7774343 19.1545595,22.9134467 18.301391,22.950541 C17.4482226,22.9938176 17.1761978,23 15,23 C12.8238022,23 12.5517774,22.9876352 11.698609,22.950541 C10.8516229,22.9134467 10.2642968,22.7774343 9.75734158,22.5795981 C9.23183926,22.3755796 8.78670788,22.1035549 8.34157651,21.6584235 C7.89644513,21.2132921 7.6244204,20.7681607 7.42040185,20.2426584 C7.22256569,19.7357032 7.08655332,19.1545595 7.04945904,18.301391 C7.00618238,17.4482226 7,17.1761978 7,15 C7,12.8238022 7.01236476,12.5517774 7.04945904,11.698609 C7.08655332,10.8516229 7.22256569,10.2642968 7.42040185,9.75734158 C7.6244204,9.23183926 7.89644513,8.78670788 8.34157651,8.34157651 C8.78670788,7.89644513 9.23183926,7.6244204 9.75734158,7.42040185 C10.2642968,7.22256569 10.8454405,7.08655332 11.698609,7.04945904 C12.5517774,7.00618238 12.8238022,7 15,7 C17.1761978,7 17.4482226,7.01236476 18.301391,7.04945904 C19.1483771,7.08655332 19.7357032,7.22256569 20.2426584,7.42040185 C20.7681607,7.6244204 21.2132921,7.89644513 21.6584235,8.34157651 C22.1035549,8.78670788 22.3755796,9.23183926 22.5795981,9.75734158 Z M20.9548023,17.9548023 C20.9887006,17.1864407 21,16.9491525 21,15 C21,13.0508475 20.9887006,12.819209 20.9548023,12.0451977 C20.920904,11.3333333 20.8022599,10.9491525 20.700565,10.6892655 C20.5649718,10.3446328 20.4067797,10.1016949 20.1525424,9.84745763 C19.8983051,9.59322034 19.6497175,9.42937853 19.3107345,9.29943503 C19.0564972,9.19774011 18.6666667,9.07909605 17.9548023,9.04519774 C17.1864407,9.00564972 16.9491525,9 15,9 C13.0508475,9 12.819209,9.01129944 12.0451977,9.04519774 C11.3333333,9.07909605 10.9491525,9.19774011 10.6892655,9.29943503 C10.3446328,9.43502825 10.1016949,9.59322034 9.84745763,9.84745763 C9.59322034,10.1016949 9.42937853,10.3502825 9.29943503,10.6892655 C9.19774011,10.9435028 9.07909605,11.3333333 9.04519774,12.0451977 C9.00564972,12.8135593 9,13.0508475 9,15 C9,16.9491525 9.01129944,17.180791 9.04519774,17.9548023 C9.07909605,18.6666667 9.19774011,19.0508475 9.29943503,19.3107345 C9.43502825,19.6553672 9.59322034,19.8983051 9.84745763,20.1525424 C10.1016949,20.4067797 10.3502825,20.5706215 10.6892655,20.700565 C10.9435028,20.8022599 11.3333333,20.920904 12.0451977,20.9548023 C12.8135593,20.9943503 13.0451977,21 15,21 C16.9548023,21 17.180791,20.9887006 17.9548023,20.9548023 C18.6666667,20.920904 19.0508475,20.8022599 19.3107345,20.700565 C19.6553672,20.5649718 19.8983051,20.4067797 20.1525424,20.1525424 C20.4067797,19.8983051 20.5706215,19.6497175 20.700565,19.3107345 C20.8022599,19.0564972 20.920904,18.6666667 20.9548023,17.9548023 Z M19,12 C18.4477153,12 18,11.5522847 18,11 C18,10.4477153 18.4477153,10 19,10 C19.5522847,10 20,10.4477153 20,11 C20,11.5522847 19.5522847,12 19,12 Z M15,11 C17.2075188,11 19,12.7924812 19,15 C19,17.2075188 17.2075188,19 15,19 C12.7924812,19 11,17.2075188 11,15 C11,12.7924812 12.7924812,11 15,11 Z M15,17 C16.1018519,17 17,16.1018519 17,15 C17,13.8935185 16.1064815,13 15,13 C13.8935185,13 13,13.8981481 13,15 C13,16.1064815 13.8981481,17 15,17 Z" id="path-1"></path>
    </defs>
    <g id="3.-Icons/ic_instagram" stroke="none" stroke-width="1" fill="none" fill-rule="evenodd">
        <mask id="mask-2" fill="white">
            <use xlink:href="#path-1"></use>
        </mask>
        <g id="Icon"></g>
        <g id="5.-Colors/Gray-85" mask="url(#mask-2)" fill="#D8D8D8">
            <g transform="translate(2.000000, 2.000000)" id="Gray-85">
                <rect x="0" y="0" width="26" height="26"></rect>
            </g>
        </g>
    </g>
</svg>