<?xml version="1.0" encoding="UTF-8"?>
<svg width="30px" height="30px" viewBox="0 0 30 30" version="1.1" xmlns="http://www.w3.org/2000/svg" xmlns:xlink="http://www.w3.org/1999/xlink">
    <!-- Generator: Sketch 51.2 (57519) - http://www.bohemiancoding.com/sketch -->
    <title>3. Icons/ic_language</title>
    <desc>Created with Sketch.</desc>
    <defs>
        <path d="M14.99,5 C9.47,5 5,9.48 5,15 C5,20.52 9.47,25 14.99,25 C20.52,25 25,20.52 25,15 C25,9.48 20.52,5 14.99,5 L14.99,5 Z M21.92,11 L18.97,11 C18.65,9.75 18.19,8.55 17.59,7.44 C19.43,8.07 20.96,9.35 21.92,11 L21.92,11 Z M15,7.04 C15.83,8.24 16.48,9.57 16.91,11 L13.09,11 C13.52,9.57 14.17,8.24 15,7.04 L15,7.04 Z M7.26,17 C7.1,16.36 7,15.69 7,15 C7,14.31 7.1,13.64 7.26,13 L10.64,13 C10.56,13.66 10.5,14.32 10.5,15 C10.5,15.68 10.56,16.34 10.64,17 L7.26,17 L7.26,17 Z M8.08,19 L11.03,19 C11.35,20.25 11.81,21.45 12.41,22.56 C10.57,21.93 9.04,20.66 8.08,19 L8.08,19 Z M11.03,11 L8.08,11 C9.04,9.34 10.57,8.07 12.41,7.44 C11.81,8.55 11.35,9.75 11.03,11 L11.03,11 Z M15,22.96 C14.17,21.76 13.52,20.43 13.09,19 L16.91,19 C16.48,20.43 15.83,21.76 15,22.96 L15,22.96 Z M17.34,17 L12.66,17 C12.57,16.34 12.5,15.68 12.5,15 C12.5,14.32 12.57,13.65 12.66,13 L17.34,13 C17.43,13.65 17.5,14.32 17.5,15 C17.5,15.68 17.43,16.34 17.34,17 L17.34,17 Z M17.59,22.56 C18.19,21.45 18.65,20.25 18.97,19 L21.92,19 C20.96,20.65 19.43,21.93 17.59,22.56 L17.59,22.56 Z M19.36,17 C19.44,16.34 19.5,15.68 19.5,15 C19.5,14.32 19.44,13.66 19.36,13 L22.74,13 C22.9,13.64 23,14.31 23,15 C23,15.69 22.9,16.36 22.74,17 L19.36,17 L19.36,17 Z" id="path-1"></path>
    </defs>
    <g id="3.-Icons/ic_language" stroke="none" stroke-width="1" fill="none" fill-rule="evenodd">
        <mask id="mask-2" fill="white">
            <use xlink:href="#path-1"></use>
        </mask>
        <use id="Icon" fill="#000000" xlink:href="#path-1"></use>
        <g id="5.-Colors/Gray-85" mask="url(#mask-2)" fill="#D8D8D8">
            <g transform="translate(2.000000, 2.000000)" id="Gray-85">
                <rect x="0" y="0" width="26" height="26"></rect>
            </g>
        </g>
    </g>
</svg>