<?xml version="1.0" encoding="UTF-8"?>
<svg width="30px" height="30px" viewBox="0 0 30 30" version="1.1" xmlns="http://www.w3.org/2000/svg" xmlns:xlink="http://www.w3.org/1999/xlink">
    <!-- Generator: Sketch 51.2 (57519) - http://www.bohemiancoding.com/sketch -->
    <title>3. Icons/ic_question_answer</title>
    <desc>Created with Sketch.</desc>
    <defs>
        <path d="M24,9 L22,9 L22,18 L9,18 L9,20 C9,20.55 9.45,21 10,21 L21,21 L25,25 L25,10 C25,9.45 24.55,9 24,9 L24,9 Z M20,15 L20,6 C20,5.45 19.55,5 19,5 L6,5 C5.45,5 5,5.45 5,6 L5,20 L9,16 L19,16 C19.55,16 20,15.55 20,15 L20,15 Z" id="path-1"></path>
    </defs>
    <g id="3.-Icons/ic_question_answer" stroke="none" stroke-width="1" fill="none" fill-rule="evenodd">
        <mask id="mask-2" fill="white">
            <use xlink:href="#path-1"></use>
        </mask>
        <g id="Icon"></g>
        <g id="5.-Colors/Gray-85" mask="url(#mask-2)" fill="#D8D8D8">
            <g transform="translate(2.000000, 2.000000)" id="Gray-85">
                <rect x="0" y="0" width="26" height="26"></rect>
            </g>
        </g>
    </g>
</svg>