<?xml version="1.0" encoding="UTF-8"?>
<svg width="30px" height="30px" viewBox="0 0 30 30" version="1.1" xmlns="http://www.w3.org/2000/svg" xmlns:xlink="http://www.w3.org/1999/xlink">
    <!-- Generator: Sketch 51.2 (57519) - http://www.bohemiancoding.com/sketch -->
    <title>3. Icons/ic_search</title>
    <desc>Created with Sketch.</desc>
    <defs>
        <path d="M18.5,17 L17.71,17 L17.43,16.73 C18.41,15.59 19,14.11 19,12.5 C19,8.91 16.09,6 12.5,6 C8.91,6 6,8.91 6,12.5 C6,16.09 8.91,19 12.5,19 C14.11,19 15.59,18.41 16.73,17.43 L17,17.71 L17,18.5 L22,23.49 L23.49,22 L18.5,17 L18.5,17 Z M12.5,17 C10.01,17 8,14.99 8,12.5 C8,10.01 10.01,8 12.5,8 C14.99,8 17,10.01 17,12.5 C17,14.99 14.99,17 12.5,17 L12.5,17 Z" id="path-1"></path>
    </defs>
    <g id="3.-Icons/ic_search" stroke="none" stroke-width="1" fill="none" fill-rule="evenodd">
        <mask id="mask-2" fill="white">
            <use xlink:href="#path-1"></use>
        </mask>
        <g id="Icon"></g>
        <g id="5.-Colors/Gray-85" mask="url(#mask-2)" fill="#666666">
            <g transform="translate(2.000000, 2.000000)" id="Gray-85">
                <rect x="0" y="0" width="26" height="26"></rect>
            </g>
        </g>
    </g>
</svg>