<?xml version="1.0" encoding="UTF-8"?>
<svg width="30px" height="30px" viewBox="0 0 30 30" version="1.1" xmlns="http://www.w3.org/2000/svg" xmlns:xlink="http://www.w3.org/1999/xlink">
    <!-- Generator: Sketch 51.2 (57519) - http://www.bohemiancoding.com/sketch -->
    <title>3. Icons/ic_settings</title>
    <desc>Created with Sketch.</desc>
    <defs>
        <path d="M22.1593316,15.98 C22.1993316,15.66 22.2293316,15.34 22.2293316,15 C22.2293316,14.66 22.1993316,14.34 22.1593316,14.02 L24.2693316,12.37 C24.4593316,12.22 24.5093316,11.95 24.3893316,11.73 L22.3893316,8.27 C22.2693316,8.05 21.9993316,7.97 21.7793316,8.05 L19.2893316,9.05 C18.7693316,8.65 18.2093316,8.32 17.5993316,8.07 L17.2193316,5.42 C17.1893316,5.18 16.9793316,5 16.7293316,5 L12.7293316,5 C12.4793316,5 12.2693316,5.18 12.2393316,5.42 L11.8593316,8.07 C11.2493316,8.32 10.6893316,8.66 10.1693316,9.05 L7.6793316,8.05 C7.4493316,7.96 7.1893316,8.05 7.0693316,8.27 L5.0693316,11.73 C4.9393316,11.95 4.9993316,12.22 5.1893316,12.37 L7.2993316,14.02 C7.2593316,14.34 7.2293316,14.67 7.2293316,15 C7.2293316,15.33 7.2593316,15.66 7.2993316,15.98 L5.1893316,17.63 C4.9993316,17.78 4.9493316,18.05 5.0693316,18.27 L7.0693316,21.73 C7.1893316,21.95 7.4593316,22.03 7.6793316,21.95 L10.1693316,20.95 C10.6893316,21.35 11.2493316,21.68 11.8593316,21.93 L12.2393316,24.58 C12.2693316,24.82 12.4793316,25 12.7293316,25 L16.7293316,25 C16.9793316,25 17.1893316,24.82 17.2193316,24.58 L17.5993316,21.93 C18.2093316,21.68 18.7693316,21.34 19.2893316,20.95 L21.7793316,21.95 C22.0093316,22.04 22.2693316,21.95 22.3893316,21.73 L24.3893316,18.27 C24.5093316,18.05 24.4593316,17.78 24.2693316,17.63 L22.1593316,15.98 L22.1593316,15.98 Z M14.7293316,18.5 C12.7993316,18.5 11.2293316,16.93 11.2293316,15 C11.2293316,13.07 12.7993316,11.5 14.7293316,11.5 C16.6593316,11.5 18.2293316,13.07 18.2293316,15 C18.2293316,16.93 16.6593316,18.5 14.7293316,18.5 L14.7293316,18.5 Z" id="path-1"></path>
    </defs>
    <g id="3.-Icons/ic_settings" stroke="none" stroke-width="1" fill="none" fill-rule="evenodd">
        <mask id="mask-2" fill="white">
            <use xlink:href="#path-1"></use>
        </mask>
        <g id="Icon"></g>
        <g id="5.-Colors/Gray-85" mask="url(#mask-2)" fill="#D8D8D8">
            <g transform="translate(2.000000, 2.000000)" id="Gray-85">
                <rect x="0" y="0" width="26" height="26"></rect>
            </g>
        </g>
    </g>
</svg>