<?xml version="1.0" encoding="UTF-8"?>
<svg width="30px" height="30px" viewBox="0 0 30 30" version="1.1" xmlns="http://www.w3.org/2000/svg" xmlns:xlink="http://www.w3.org/1999/xlink">
    <!-- Generator: Sketch 51.2 (57519) - http://www.bohemiancoding.com/sketch -->
    <title>3. Icons/ic_twitter</title>
    <desc>Created with Sketch.</desc>
    <defs>
        <path d="M24,9.77519231 C23.3377719,10.0769231 22.6265941,10.2805769 21.8788447,10.3711538 C22.6412228,9.90269231 23.2269317,9.16076923 23.5031883,8.27692308 C22.7891973,8.71019231 21.9992498,9.02634615 21.158102,9.19538462 C20.4840585,8.45980769 19.5241935,8 18.4613653,8 C16.4217929,8 14.7693173,9.695 14.7693173,11.7863462 C14.7693173,12.0828846 14.8013878,12.3725 14.8644036,12.6494231 C11.7951988,12.4913462 9.07426857,10.9838462 7.25243811,8.69288462 C6.93510878,9.2525 6.7528132,9.90269231 6.7528132,10.5967308 C6.7528132,11.9109615 7.40491373,13.0694231 8.39516129,13.7490385 C7.79032258,13.7288462 7.22093023,13.5592308 6.72299325,13.2753846 C6.72243061,13.2909615 6.72243061,13.3076923 6.72243061,13.3226923 C6.72243061,15.1578846 7.99512378,16.6884615 9.68473368,17.0363462 C9.37528132,17.1223077 9.04894974,17.1690385 8.71192798,17.1690385 C8.47336834,17.1690385 8.24268567,17.1453846 8.01762941,17.1015385 C8.48687172,18.605 9.85127532,19.7 11.4666167,19.7311538 C10.2034884,20.7465385 8.6112153,21.3528846 6.88109527,21.3528846 C6.58289572,21.3528846 6.28863466,21.335 6,21.2998077 C7.63390848,22.3728846 9.57501875,23 11.6607277,23 C18.4529257,23 22.168042,17.2301923 22.168042,12.2259615 C22.168042,12.0621154 22.1635409,11.8982692 22.1567892,11.7355769 C22.8786572,11.2019231 23.5043136,10.5355769 24,9.77519231 Z" id="path-1"></path>
    </defs>
    <g id="3.-Icons/ic_twitter" stroke="none" stroke-width="1" fill="none" fill-rule="evenodd">
        <mask id="mask-2" fill="white">
            <use xlink:href="#path-1"></use>
        </mask>
        <g id="Icon"></g>
        <g id="5.-Colors/Gray-85" mask="url(#mask-2)" fill="#D8D8D8">
            <g transform="translate(2.000000, 2.000000)" id="Gray-85">
                <rect x="0" y="0" width="26" height="26"></rect>
            </g>
        </g>
    </g>
</svg>